<svg xmlns="http://www.w3.org/2000/svg" width="88" height="88" viewBox="0 0 88 88">
  <g fill="none" transform="translate(-1)">
    <path fill="#E6FAFF" d="M44.88,2.14652527e-15 C27.1312872,-0.00404482981 11.1279781,10.6844091 4.33303694,27.0809207 C-2.46190426,43.4774324 1.28981354,62.3526427 13.8386187,74.9043083 C26.3874239,87.4559739 45.2617785,91.2119936 61.6598385,84.4207897 C78.0578984,77.6295858 88.7499995,61.6287132 88.75,43.88 C88.7279563,19.6587854 69.101209,0.027564223 44.88,2.14652527e-15 Z"/>
    <path fill="#0067F5" d="M0.004265625,26.4421662 L26.2542656,26.4421662 L26.2542656,23.81904 L0.004265625,23.81904 L0.004265625,26.4421662 Z M12.9218906,18.5725662 L7.87926563,18.5725662 L7.87926563,13.1898462 L20.7929531,0.0685661538 L26.2542656,5.49592615 L12.9218906,18.5725662 Z" transform="translate(31.375 27.262)"/>
  </g>
</svg>
