<svg xmlns="http://www.w3.org/2000/svg" viewBox="0 0 537.26 485.94"><defs><clipPath id="a"><path fill="none" d="M281.1 350.4L189 175.2h143.6v175.2h-51.5z"/></clipPath><clipPath id="b"><path fill="none" d="M281.1 350.4H73l90.9-90.2v-85H189l92.1 175.2z"/></clipPath><clipPath id="c"><path fill="none" d="M0 350.4V175.2h163.9v85L73 350.4H0z"/></clipPath><clipPath id="d"><path fill="none" d="M51.6 0l92 175.2H0V0h51.6z"/></clipPath><clipPath id="e"><path fill="none" d="M51.6 0h208l-90.8 89.9v85.3h-25.2L51.6 0z"/></clipPath><clipPath id="f"><path fill="none" d="M332.6 0v175.2H168.8V89.9L259.6 0h73z"/></clipPath><pattern id="g" data-name="SVGID 14" width="36.9" height="21.3" patternTransform="matrix(.73 0 0 .73 -9483.09 33899.54)" patternUnits="userSpaceOnUse"><path fill="none" d="M0 0h36.9v21.3H0z"/><path fill="none" d="M0 0h36.9v21.3H0z"/><path d="M0 0h36.9v21.3H0z" fill="none"/><path d="M0 0h36.9v21.3H0z" fill="none"/><path d="M0 0h36.9v21.3H0z" fill="none"/><path d="M0 0h36.9v21.3H0z" fill="none"/><path d="M0 0h36.9v21.3H0z" fill="none"/><path d="M.8 0l36.1 20.9v-1.5L3.3 0zm4 0l32.1 18.5V17L7.4 0zM13 0l23.9 13.8v-1.5L15.6 0zM0 1.9l33.5 19.4h2.6L0 .4zm0 2.4l29.4 17H32L0 2.8zM8.9 0l28 16.1v-1.5L11.5 0zM0 9l21.2 12.3h2.6L0 7.5zm0-2.3l25.3 14.6h2.6L0 5.2zm0 14.2l.8.4h2.5L0 19.4zm0-7.1l13 7.5h2.6L0 12.3zm0 2.3l8.9 5.2h2.6L0 14.6zm0-4.7l17.1 9.9h2.6L0 9.9zM17.1 0l19.8 11.4V9.9L19.7 0zM0 18.5l4.8 2.8h2.6L0 17zM25.3 0l11.6 6.7V5.2l-9-5.2zm-4.1 0l15.7 9V7.5L23.8 0zm8.2 0l7.5 4.3V2.8L32 0zm6.7 0h-2.6l3.4 1.9V.4z" fill="#fffae6"/><path d="M36.9 0h-.8l.8.4zM32 0l4.9 2.8v-.9L33.5 0zm-4.1 0l9 5.2v-.9L29.4 0zm-4.1 0l13.1 7.5v-.8L25.3 0zm-4.1 0l17.2 9.9V9L21.2 0zm-4.1 0l21.3 12.3v-.9L17.1 0zm-4.1 0l25.4 14.6v-.8L13 0zM7.4 0l29.5 17v-.9L8.9 0zM3.3 0l33.6 19.4v-.9L4.8 0zM0 0v.4l36.1 20.9h.8v-.4L.8 0zm0 2.8l32 18.5h1.5L0 1.9zm0 2.4l27.9 16.1h1.5L0 4.3zm0 2.3l23.8 13.8h1.5L0 6.7zm0 2.4l19.7 11.4h1.5L0 9zm0 2.4l15.6 9h1.5L0 11.4zm0 2.3l11.5 6.7H13L0 13.8zM0 17l7.4 4.3h1.5L0 16.1zm0 2.4l3.3 1.9h1.5L0 18.5zm0 1.9h.8l-.8-.4z" fill="#fff5cc"/></pattern><pattern id="h" data-name="SVGID 15" width="22.2" height="24.7" patternTransform="matrix(0 -5.97 5.97 0 -122021.71 118264.2)" patternUnits="userSpaceOnUse"><path fill="none" d="M0 0h22.2v24.7H0z"/><path fill="none" d="M0 0h22.2v24.7H0z"/><path d="M0 0h22.2v24.7H0z" fill="none"/><path d="M0 0h22.2v24.7H0z" fill="none"/><path d="M16.6 0h11.1v24.7H16.6z" fill="#0066f5"/><path d="M16.6 0h11.1v24.7H16.6z" fill="#0066f5"/><path d="M16.6 24.4zm0-23.7zm11.2 1.8V2a3.46 3.46 0 0 0-1.1-1 2 2 0 0 1 1.1-.3V.4a3.26 3.26 0 0 0-1.4.4A2.3 2.3 0 0 0 25 .4a3.26 3.26 0 0 0-1.4.4 2.3 2.3 0 0 0-1.4-.4 3.26 3.26 0 0 0-1.4.4 2.39 2.39 0 0 0-1.4-.5h-.1a2.3 2.3 0 0 0-1.4.4 2.84 2.84 0 0 0-1.3-.4v.3a1.69 1.69 0 0 1 1 .3 5.24 5.24 0 0 0-1 1.1v.5a7.61 7.61 0 0 1 1.2 1.9c-.1.2-.2.5-.3.7l-.9 1.6v.7l1.2 2.3-1.2 2.3v.7l1.2 2.3-1.2 2.3v.7l.9 1.7c.1.2.2.5.3.7-.3.5-.7 1.2-1.2 1.9v.5a3 3 0 0 0 .8.8c.1.1.2.2.3.2a2 2 0 0 1-1.1.3v.3A3.26 3.26 0 0 0 18 24a2.3 2.3 0 0 0 1.4.4 3.26 3.26 0 0 0 1.4-.4 2.3 2.3 0 0 0 1.4.4 3.26 3.26 0 0 0 1.4-.4 2.3 2.3 0 0 0 1.4.4 3.26 3.26 0 0 0 1.4-.4 2.3 2.3 0 0 0 1.4.4v-.3a2 2 0 0 1-1.1-.3 5.24 5.24 0 0 0 1.1-1v-.5a7.61 7.61 0 0 1-1.2-1.9c.1-.2.2-.5.3-.7l.9-1.6v-.7L26.5 15l1.2-2.3V12l-1.2-2.3 1.2-2.3v-.7L26.8 5c-.1-.2-.2-.5-.3-.7.3-.4.7-1.1 1.3-1.8zm-1.4 6.9l-1.2-2.3 1-1.8c.1-.2.1-.3.2-.5a.76.76 0 0 1 .2.5l1 1.9zm-5.6 5.3l-1.2-2.3 1.2-2.3 1.2 2.3zm1.4-2l1.2 2.3-1.2 2.3L21 15zm-1.2-3l1.2-2.3 1.2 2.3-1.2 2.3zm2.6.3l1.2 2.3-1.2 2.3-1.2-2.2zm.2-.3L25 7.4l1.2 2.3L25 12zm1.2 3l1.2 2.3-1.2 2.3-1.2-2.3zm.8 7c.1.2.2.5.3.7-.3.5-.7 1.2-1.2 1.9l-1.2-1.8c.1-.2.2-.5.3-.7l.9-1.6zm-2.2.3c-.2-.3-.2-.5-.3-.5l-1-1.9 1.2-2.3 1.2 2.3-1 1.8c.1.1 0 .3-.1.6zm-.2.4c-.3.5-.7 1.2-1.2 1.9-.5-.7-.9-1.4-1.2-1.9.1-.2.2-.5.3-.7l.9-1.6.9 1.7c0-.1.1.2.3.6zm-2.6-.4a.76.76 0 0 1-.2-.5l-1-1.9 1.2-2.3 1.2 2.3-1 1.8a1.42 1.42 0 0 1-.2.6zm-.2.3c-.3.5-.7 1.2-1.2 1.9a7.61 7.61 0 0 1-1.2-1.9c.1-.2.2-.5.3-.7l.9-1.6.9 1.7zm-1.2-3L18.2 15l1.2-2.3 1.2 2.3zm0-5.3l-1.2-2.3 1.2-2.3 1.2 2.3zm0-5.3L18.5 5c-.1-.2-.2-.5-.3-.7.3-.5.7-1.2 1.2-1.9a7.61 7.61 0 0 1 1.2 1.9c-.1.3-.2.5-.3.8zm1.4-2a.76.76 0 0 1 .2.5l1 1.9-1.2 2.3-1.2-2.3 1-1.8c.1-.2.1-.4.2-.6zm.2-.3c.3-.5.7-1.2 1.2-1.9a7.61 7.61 0 0 1 1.2 1.9c-.1.2-.2.5-.3.7l-.9 1.6-.9-1.7zm2.6.3a.76.76 0 0 1 .2.5l1 1.9-1.2 2.3-1.2-2.3 1-1.8c-.1-.1 0-.3.2-.6zm.2-.3c.3-.5.7-1.2 1.2-1.9a7.61 7.61 0 0 1 1.2 1.9c-.1.2-.2.5-.3.7L25 6.7 24.1 5zm2.6 10.3l-1.2-2.3 1.2-2.4 1.2 2.3zm0 5.3a.76.76 0 0 1-.2-.5l-1-1.9 1.2-2.3 1.2 2.3-1 1.8c-.1.2-.1.4-.2.6zm-1.2 2.5l1.2-1.8 1.2 1.8a12 12 0 0 1-1.2 1.1 4.26 4.26 0 0 1-1.2-1.1zm-1.3 1.2a5.24 5.24 0 0 0 1.1-1 3.46 3.46 0 0 0 1.1 1 2 2 0 0 1-1.1.3 1.43 1.43 0 0 1-1.1-.3zm-1.5-1.2l1.2-1.8 1.2 1.8a12 12 0 0 1-1.2 1.1 12 12 0 0 1-1.2-1.1zm-1.3 1.3a5.24 5.24 0 0 0 1.1-1 5.24 5.24 0 0 0 1.1 1 2 2 0 0 1-1.1.3zm-.3-.2a12 12 0 0 1-1.2-1.1l1.2-1.8 1.2 1.8a4.26 4.26 0 0 1-1.2 1.1zm-2.5.1a5.24 5.24 0 0 0 1.1-1 5.73 5.73 0 0 0 1.1 1.1 2 2 0 0 1-1.1.3 2.1 2.1 0 0 1-1.1-.4zm-.3-3l1.2 1.8a12 12 0 0 1-1.2 1.1c-.1-.1-.3-.2-.4-.3a2.7 2.7 0 0 1-.7-.8c.4-.7.8-1.3 1.1-1.8zm0-5.4l1.2 2.3-1 1.8c-.1.2-.1.3-.2.5a.76.76 0 0 1-.2-.5l-1-1.9zm0-5.3l1.2 2.3-1.2 2.3-1.2-2.3zm0-5.3a.76.76 0 0 1 .2.5l1 1.9L18 9.4l-1.2-2.3 1-1.8c.1-.2.1-.4.2-.6zm1.2-2.4L18 4.1l-1.2-1.8a3.18 3.18 0 0 1 1.1-1.2 4.89 4.89 0 0 1 1.3 1.2zM20.5 1a5.24 5.24 0 0 0-1.1 1A12 12 0 0 0 18.2.9a5 5 0 0 1 1.2-.2 2 2 0 0 1 1.1.3zM22 2.3l-1.2 1.8-1.2-1.8a12 12 0 0 1 1.2-1.1A4.26 4.26 0 0 1 22 2.3zM23.3 1a5.24 5.24 0 0 0-1.1 1 3.46 3.46 0 0 0-1.1-1 2.17 2.17 0 0 1 2.2 0zm1.5 1.3l-1.2 1.8-1.2-1.8a12 12 0 0 1 1.2-1.1 4.26 4.26 0 0 1 1.2 1.1zM26.1 1A5.24 5.24 0 0 0 25 2a3.46 3.46 0 0 0-1.1-1 2.17 2.17 0 0 1 2.2 0zm1.4 1.3l-1.2 1.8-1.2-1.8a12 12 0 0 1 1.2-1.1 2.54 2.54 0 0 1 1.2 1.1z" fill="#0029eb"/><path d="M5.5 0h11.1v24.7H5.5z" fill="#0066f5"/><path d="M5.5 0h11.1v24.7H5.5z" fill="#0066f5"/><path d="M5.5 24.4zM5.5.7zm11.1 1.8V2a3.46 3.46 0 0 0-1.1-1 2 2 0 0 1 1.1-.3V.4a3.26 3.26 0 0 0-1.4.4 2.3 2.3 0 0 0-1.4-.4 3.26 3.26 0 0 0-1.4.4A2.3 2.3 0 0 0 11 .4a3.26 3.26 0 0 0-1.4.4A2.3 2.3 0 0 0 8.2.4h-.1a2.3 2.3 0 0 0-1.4.4A2.84 2.84 0 0 0 5.4.4v.3a1.69 1.69 0 0 1 1 .3 5.24 5.24 0 0 0-1 1.1v.5a7.61 7.61 0 0 1 1.2 1.9c-.1.2-.1.4-.2.6l-.9 1.6v.7l1.2 2.3L5.5 12v.7L6.7 15l-1.2 2.3v.7l.9 1.7c.1.2.2.5.3.7-.3.5-.7 1.2-1.2 1.9v.5a3 3 0 0 0 .8.8c.1.1.2.2.3.2a2 2 0 0 1-1.1.3v.3a3.26 3.26 0 0 0 1.4-.4 2.3 2.3 0 0 0 1.4.4 3.26 3.26 0 0 0 1.4-.4 2.3 2.3 0 0 0 1.4.4 3.26 3.26 0 0 0 1.4-.4 2.3 2.3 0 0 0 1.4.4 3.26 3.26 0 0 0 1.4-.4 2.3 2.3 0 0 0 1.4.4v-.3a2 2 0 0 1-1.1-.3 5.24 5.24 0 0 0 1.1-1v-.5a7.61 7.61 0 0 1-1.2-1.9c.1-.2.2-.5.3-.7l.9-1.6v-.7L15.4 15l1.2-2.3V12l-1.2-2.3 1.2-2.3v-.7L15.7 5c-.1-.2-.2-.5-.3-.7.3-.4.7-1.1 1.2-1.8zm-1.4 6.9L14 7.1l1-1.8c.1-.2.1-.3.2-.5.1.1.2.3.3.4l1 1.9zm-5.5 5.3l-1.2-2.3 1.2-2.3 1.2 2.3zm1.4-2l1.2 2.3-1.2 2.3L9.9 15zm-1.2-3l1.2-2.3 1.2 2.3-1.2 2.3zm2.6.3l1.2 2.3-1.2 2.3-1.2-2.3zm.1-.3l1.2-2.3L15 9.7 13.9 12zm1.3 3l1.2 2.3-1.2 2.3-1.3-2.3zm.8 7c.1.2.2.5.3.7-.3.5-.7 1.2-1.2 1.9l-1.2-1.8c.1-.2.2-.5.3-.7l.9-1.6zm-2.2.3c-.2-.3-.2-.5-.3-.5l-1-1.9 1.2-2.3 1.2 2.3-1 1.8c.1.1 0 .3-.1.6zm-.2.4c-.3.5-.7 1.2-1.2 1.9-.5-.7-.9-1.4-1.2-1.9.1-.2.2-.5.3-.7l.9-1.6.9 1.7c0-.1.1.2.3.6zM9.7 20a.76.76 0 0 1-.2-.5l-1-1.9 1.2-2.3 1.2 2.3-1 1.8c-.1.2-.1.4-.2.6zm-.2.3c-.3.5-.7 1.2-1.2 1.9a7.61 7.61 0 0 1-1.2-1.9c.1-.2.2-.5.3-.7l.9-1.6.9 1.7zm-1.2-3L7.1 15l1.2-2.3L9.5 15zm0-5.3L7.1 9.7l1.2-2.3 1.2 2.3zm0-5.3l-.9-1.6c-.1-.2-.2-.5-.3-.7.3-.5.7-1.2 1.2-1.9a7.61 7.61 0 0 1 1.2 1.9c-.1.2-.2.5-.3.7zm1.4-2a.76.76 0 0 1 .2.5l1 1.9-1.2 2.3-1.2-2.3 1-1.8c-.1-.1 0-.3.2-.6zm.2-.3c.3-.5.7-1.2 1.2-1.9a7.61 7.61 0 0 1 1.2 1.9c-.1.2-.2.5-.3.7l-.9 1.6-.9-1.7zm2.6.3a.76.76 0 0 1 .2.5l1 1.9-1.2 2.3-1.2-2.3 1-1.8c-.1-.1 0-.3.2-.6zm.1-.3c.3-.5.7-1.2 1.2-1.9A7.61 7.61 0 0 1 15 4.4c-.1.2-.2.5-.3.7l-.9 1.6-.9-1.7c.1 0-.1-.2-.3-.6zm2.6 10.3L14 12.4l1.2-2.3 1.2 2.3zm0 5.3a.76.76 0 0 1-.2-.5l-1-1.9 1.2-2.3 1.2 2.3-1 1.8c.1.1 0 .3-.2.6zm-1.1 2.5l1.2-1.8 1.2 1.8a12 12 0 0 1-1.2 1.1 4.26 4.26 0 0 1-1.2-1.1zm-1.3 1.2a5.24 5.24 0 0 0 1.1-1 3.46 3.46 0 0 0 1.1 1 2 2 0 0 1-1.1.3 1.43 1.43 0 0 1-1.1-.3zm-1.5-1.2l1.2-1.8 1.2 1.8a12 12 0 0 1-1.2 1.1 12 12 0 0 1-1.2-1.1zM10 23.8a5.24 5.24 0 0 0 1.1-1 5.24 5.24 0 0 0 1.1 1 2 2 0 0 1-1.1.3zm-.3-.2a12 12 0 0 1-1.2-1.1l1.2-1.8 1.2 1.8a12 12 0 0 1-1.2 1.1zm-2.5.1a5.24 5.24 0 0 0 1.1-1 5.73 5.73 0 0 0 1.1 1.1 2 2 0 0 1-1.1.3 2.1 2.1 0 0 1-1.1-.4zm-.3-3l1.2 1.8a12 12 0 0 1-1.2 1.1c-.1-.1-.3-.2-.4-.3a2.7 2.7 0 0 1-.7-.8c.4-.7.8-1.3 1.1-1.8zm0-5.4l1.2 2.3-1 1.8c-.1.2-.1.3-.2.5a.76.76 0 0 1-.2-.5l-1-1.9zm0-5.3l1.2 2.3-1.2 2.3-1.2-2.3zm0-5.3a.76.76 0 0 1 .2.5l1 1.9-1.2 2.3-1.2-2.3 1-1.8c.1-.2.1-.4.2-.6zm1.2-2.4L6.9 4.1 5.7 2.3a3.18 3.18 0 0 1 1.1-1.2 4.89 4.89 0 0 1 1.3 1.2zM9.4 1a5.24 5.24 0 0 0-1.1 1A12 12 0 0 0 7.1.9 2.66 2.66 0 0 1 8.3.6a3.58 3.58 0 0 1 1.1.4zm1.5 1.3L9.7 4.1 8.5 2.3a12 12 0 0 1 1.2-1.1 4.26 4.26 0 0 1 1.2 1.1zM12.2 1a5.24 5.24 0 0 0-1.1 1A3.46 3.46 0 0 0 10 1a2.17 2.17 0 0 1 2.2 0zm1.5 1.3l-1.2 1.8-1.2-1.8a12 12 0 0 1 1.2-1.1 4.26 4.26 0 0 1 1.2 1.1zM15 1a5.24 5.24 0 0 0-1.1 1 3.46 3.46 0 0 0-1.1-1A2.17 2.17 0 0 1 15 1zm1.4 1.3l-1.2 1.8L14 2.3a12 12 0 0 1 1.2-1.1 2.54 2.54 0 0 1 1.2 1.1z" fill="#0029eb"/><path d="M-5.6 0H5.5v24.7H-5.6z" fill="#0066f5"/><path d="M-5.6 0H5.5v24.7H-5.6z" fill="#0066f5"/><path d="M5.5 2.5V2a3.46 3.46 0 0 0-1.1-1A2 2 0 0 1 5.5.7V.4a3.26 3.26 0 0 0-1.4.4A2.39 2.39 0 0 0 2.7.3a3.26 3.26 0 0 0-1.4.4A2.84 2.84 0 0 0 0 .3a3.26 3.26 0 0 0-1.4.4A3.26 3.26 0 0 0-2.8.3h-.1a2.3 2.3 0 0 0-1.4.4A2.84 2.84 0 0 0-5.6.3v.3a1.69 1.69 0 0 1 1 .3 5.24 5.24 0 0 0-1 1.1v.5a7.61 7.61 0 0 1 1.2 1.9c-.1.2-.2.5-.3.7l-.9 1.6v.7l1.2 2.3-1.2 2.3v.7l1.2 2.3-1.2 2.3v.7l.9 1.7c.1.2.2.5.3.7-.3.5-.7 1.2-1.2 1.9v.5a3 3 0 0 0 .8.8c.1.1.2.2.3.2a2 2 0 0 1-1.1.3v.3a3.26 3.26 0 0 0 1.4-.4 2.3 2.3 0 0 0 1.4.4 3.26 3.26 0 0 0 1.4-.4 2.3 2.3 0 0 0 1.4.4 3.26 3.26 0 0 0 1.4-.4 2.3 2.3 0 0 0 1.4.4 3.26 3.26 0 0 0 1.4-.4 2.3 2.3 0 0 0 1.4.4v-.3a2 2 0 0 1-1.1-.3 5.24 5.24 0 0 0 1.1-1v-.5a7.61 7.61 0 0 1-1.2-1.9c.1-.2.2-.5.3-.7l.9-1.6v-.7L4.3 15l1.2-2.3V12L4.3 9.7l1.2-2.3v-.7L4.6 5c-.1-.2-.2-.5-.3-.7.3-.4.7-1.1 1.2-1.8zM4.1 9.4L2.9 7.1l1-1.8c.1-.2.1-.3.2-.5.1.1.2.3.3.4l1 1.9zm-5.5 5.3l-1.2-2.3 1.2-2.4 1.2 2.3zm1.4-2L1.2 15 0 17.3-1.3 15zm-1.3-3l1.2-2.3 1.2 2.3L0 12zm2.6.3l1.2 2.3-1.2 2.3-1.2-2.3zm.2-.3l1.2-2.3 1.2 2.3L2.7 12zm1.2 3L4 15l-1.2 2.3L1.5 15zm.9 7c.1.2.2.5.3.7-.3.5-.7 1.2-1.2 1.9l-1.2-1.8c.1-.2.2-.5.3-.7l.9-1.8zm-2.2.3c-.2-.3-.2-.5-.3-.5l-1-1.9 1.2-2.3 1.2 2.3-1 1.8c.1.1 0 .3-.1.6zm-.2.4c-.3.5-.7 1.2-1.2 1.9-.5-.7-.9-1.4-1.2-1.9.1-.2.2-.5.3-.7L0 18l.9 1.7c-.1 0 .1.3.3.7zm-2.6-.4a.76.76 0 0 1-.2-.5l-1-1.9 1.2-2.3 1.2 2.3-1 1.8c-.1.2-.1.4-.2.6zm-.2.3c-.3.5-.7 1.2-1.2 1.9A7.61 7.61 0 0 1-4 20.3c.1-.2.2-.5.3-.7l.9-1.6.9 1.7zm-1.2-3L-4 15l1.2-2.3 1.2 2.3zm0-5.3L-4 9.7l1.2-2.3 1.2 2.3zm0-5.3l-.9-1.6c-.1-.2-.2-.5-.3-.7.3-.5.7-1.2 1.2-1.9.5.7.9 1.4 1.2 1.9a2.51 2.51 0 0 1-.4.7zm1.4-2c.1.2.1.3.2.5l1 1.9-1.2 2.3-1.2-2.3 1-1.8c-.1-.1 0-.3.2-.6zm.1-.3A12.74 12.74 0 0 1 0 2.5a7.61 7.61 0 0 1 1.2 1.9c-.1.2-.3.5-.4.7L0 6.7l-.9-1.6c-.1-.2-.3-.5-.4-.7zm2.6.3c.1.2.2.3.3.5l1 1.9-1.3 2.3L.1 7.1l1-1.8c.1-.2.1-.4.2-.6zm.2-.3c.3-.5.7-1.2 1.2-1.9a7.61 7.61 0 0 1 1.2 1.9c-.1.2-.2.5-.3.7l-.9 1.6-.8-1.6c-.1-.2-.3-.5-.4-.7zm2.6 10.3l-1.2-2.3L4.1 10l1.2 2.3zm0 5.3a.76.76 0 0 1-.2-.5l-1-1.9 1.2-2.3 1.2 2.3-1 1.8c.1.1 0 .3-.2.6zm-1.2 2.5l1.2-1.8 1.2 1.8a12 12 0 0 1-1.2 1.1 12 12 0 0 1-1.2-1.1zm-1.3 1.2a5.24 5.24 0 0 0 1.1-1 3.46 3.46 0 0 0 1.1 1 2 2 0 0 1-1.1.3 2 2 0 0 1-1.1-.3zM.2 22.5l1.2-1.8 1.2 1.8a12 12 0 0 1-1.2 1.1 4.26 4.26 0 0 1-1.2-1.1zm-1.3 1.3a5.24 5.24 0 0 0 1.1-1 5.24 5.24 0 0 0 1.1 1 2 2 0 0 1-1.1.3 2 2 0 0 1-1.1-.3zm-.3-.2a12 12 0 0 1-1.2-1.1l1.2-1.8 1.2 1.8a12 12 0 0 1-1.2 1.1zm-2.5.1a5.24 5.24 0 0 0 1.1-1 5.73 5.73 0 0 0 1.1 1.1 2 2 0 0 1-1.1.3 2.1 2.1 0 0 1-1.1-.4zm-.3-3l1.2 1.8a12 12 0 0 1-1.2 1.1c-.1-.1-.3-.2-.4-.3a2.7 2.7 0 0 1-.7-.8c.4-.7.8-1.3 1.1-1.8zm0-5.4l1.2 2.3-1 1.8c-.1.2-.1.3-.2.5a.76.76 0 0 1-.2-.5l-1-1.9zm0-5.3l1.2 2.3-1.2 2.3-1.2-2.3zm0-5.3c.1.2.1.3.2.5l1 1.9-1.2 2.3-1.2-2.3 1-1.8c-.1-.1 0-.3.2-.6zM-3 2.3a9.39 9.39 0 0 0-1.2 1.8 9.39 9.39 0 0 0-1.2-1.8 3.18 3.18 0 0 1 1.1-1.2A4.89 4.89 0 0 1-3 2.3zM-1.7 1a5.24 5.24 0 0 0-1.1 1A12 12 0 0 0-4 .9 2.66 2.66 0 0 1-2.8.6a3.58 3.58 0 0 1 1.1.4zm1.5 1.3a9.39 9.39 0 0 0-1.2 1.8 9.39 9.39 0 0 0-1.2-1.8 12 12 0 0 1 1.2-1.1A4.26 4.26 0 0 1-.2 2.3zM1.1 1A5.24 5.24 0 0 0 0 2a5.24 5.24 0 0 0-1.1-1A2 2 0 0 1 0 .7a2 2 0 0 1 1.1.3zm1.4 1.3a9.39 9.39 0 0 0-1.2 1.8A5.44 5.44 0 0 0 .2 2.3a12 12 0 0 1 1.2-1.1 2.91 2.91 0 0 1 1.1 1.1zM3.8 1a5.24 5.24 0 0 0-1.1 1 5.24 5.24 0 0 0-1.1-1A2 2 0 0 1 2.7.7a2 2 0 0 1 1.1.3zm1.5 1.3a9.39 9.39 0 0 0-1.2 1.8 9.39 9.39 0 0 0-1.2-1.8 12 12 0 0 1 1.2-1.1 2.54 2.54 0 0 1 1.2 1.1z" fill="#0029eb"/></pattern><clipPath id="i"><path d="M268.63 42.32c60 .4 260.54 42.71 268.63 268.49 0 0-83.31-48.55-179.35.27.13.13 20.82-192.75-89.28-268.76" fill="none"/></clipPath><pattern id="j" data-name="SVGID 19" width="332.7" height="350.4" patternTransform="matrix(.73 0 0 .73 -9078.82 34373.69)" patternUnits="userSpaceOnUse"><path fill="none" d="M0 0h332.7v350.4H0z"/><path fill="none" d="M0 0h332.7v350.4H0z"/><path d="M0 0h332.7v350.4H0z" fill="none"/><path d="M0 0h332.7v350.4H0z" fill="none"/><path d="M0 0h332.7v350.4H0z" fill="none"/><path d="M0 0h332.7v350.4H0z" fill="#e1f6ff"/><g clip-path="url(#a)"><path d="M247.7 445.9l-.7-.7 217.8-217.9.7.7-217.8 217.9zm-1.5-1.5l-.7-.7 217.8-217.9.7.7-217.8 217.9zm-1.6-1.5l-.7-.7 217.9-217.9.7.7-217.9 217.9zm-1.5-1.5l-.7-.7 217.9-217.9.7.7-217.9 217.9zm-1.5-1.6l-.7-.7 217.9-217.8.7.7zm-1.5-1.5l-.7-.7 217.9-217.8.7.7zm-1.5-1.5l-.7-.7 217.9-217.8.7.7zm-1.5-1.5l-.7-.7 217.9-217.9.7.8zm-1.5-1.5l-.7-.7 217.9-217.9.7.7zm-1.5-1.5l-.7-.7 217.8-217.9.7.7-217.8 217.9zm-1.5-1.5l-.7-.7 217.8-217.9.7.7-217.8 217.9zm-1.5-1.5l-.7-.7 217.8-217.9.7.7-217.8 217.9zm-1.5-1.5l-.7-.7 217.8-217.9.7.7-217.8 217.9zm-1.6-1.5l-.7-.7 217.9-217.9.7.7zm-1.5-1.6l-.7-.7 217.9-217.8.7.7-217.9 217.8zm-1.5-1.5l-.7-.7 217.9-217.8.7.7zm-1.5-1.5l-.7-.7 217.9-217.8.7.7-217.9 217.8zm-1.5-1.5l-.7-.7 217.9-217.9.7.8zm-1.5-1.5l-.7-.7 217.9-217.9.7.7-217.9 217.9zm-1.5-1.5l-.7-.7 217.8-217.9.8.7zm-1.5-1.5l-.7-.7 217.8-217.9.7.7-217.8 217.9zm-1.5-1.5l-.7-.7 217.8-217.9.7.7zm-1.5-1.5l-.8-.7 217.9-217.9.7.7-217.8 217.9zm-1.6-1.5l-.7-.7 217.9-217.9.7.7zm-1.5-1.5l-.7-.7 217.9-217.9.7.7zm-1.5-1.6l-.7-.7 217.9-217.8.7.7-217.9 217.8zm-1.5-1.5l-.7-.7 217.9-217.8.7.7-217.9 217.8zm-1.5-1.5l-.7-.7 217.9-217.8.7.7-217.9 217.8zm-1.5-1.5l-.7-.7L422.6 185l.7.7-217.9 217.9zm-1.5-1.5l-.7-.7 217.9-217.9.7.7-217.9 217.9zm-1.5-1.5l-.7-.7L419.5 182l.7.7-217.8 217.9zm-1.5-1.5l-.7-.7L418 180.5l.7.7-217.8 217.9zm-1.6-1.5l-.7-.7L416.5 179l.7.7-217.9 217.9zm-1.5-1.5l-.7-.7L415 177.5l.7.7-217.9 217.9zm-1.5-1.5l-.7-.7L413.5 176l.7.7-217.9 217.9zm-1.5-1.6l-.7-.7L412 174.5l.7.7zm-1.5-1.5l-.7-.7L410.5 173l.7.7-217.9 217.8zm-1.5-1.5l-.7-.7L409 171.5l.7.7zm-1.5-1.5l-.7-.7 217.9-217.9.7.7-217.9 217.9zm-1.5-1.5l-.7-.7 217.8-217.9.7.7zm-1.5-1.5l-.7-.7 217.8-217.9.7.7-217.8 217.9zm-1.5-1.5l-.7-.7 217.8-217.9.7.7zm-1.5-1.5l-.7-.7 217.8-217.9.7.7-217.8 217.9zm-1.6-1.5l-.7-.7 217.9-217.9.7.7zm-1.5-1.5l-.7-.8 217.9-217.8.7.7-217.9 217.9zm-1.5-1.6l-.7-.7 217.9-217.8.7.7-217.9 217.8zm-1.5-1.5l-.7-.7 217.9-217.8.7.7-217.9 217.8zm-1.5-1.5l-.7-.7 217.9-217.8.7.7-217.9 217.8zm-1.5-1.5l-.7-.7 217.9-217.9.7.8-217.9 217.8zm-1.5-1.5l-.7-.7 217.9-217.9.7.7-217.9 217.9zm-1.5-1.5l-.7-.7 217.8-217.9.8.7-217.9 217.9zm-1.5-1.5l-.7-.7 217.8-217.9.7.7-217.8 217.9zm-1.5-1.5l-.7-.7 217.8-217.9.7.7-217.8 217.9zm-1.6-1.5l-.7-.7 217.9-217.9.7.7-217.9 217.9zm-1.5-1.5l-.7-.7 217.9-217.9.7.7-217.9 217.9zm-1.5-1.5l-.7-.8 217.9-217.8.7.7zm-1.5-1.6l-.7-.7 217.9-217.8.7.7zm-1.5-1.5l-.7-.7 217.9-217.8.7.7zm-1.5-1.5l-.7-.7 217.9-217.9.7.8zm-1.5-1.5l-.7-.7 217.9-217.9.7.7zm-1.5-1.5l-.7-.7 217.8-217.9.7.7-217.8 217.9zm-1.5-1.5l-.7-.7 217.8-217.9.7.7-217.8 217.9zm-1.5-1.5l-.8-.7 217.9-217.9.7.7-217.8 217.9zm-1.5-1.5l-.8-.7 217.9-217.9.7.7-217.8 217.9zm-1.6-1.5l-.7-.7 217.9-217.9.7.7zm-1.5-1.6l-.7-.7 217.9-217.8.7.7-217.9 217.8zm-1.5-1.5l-.7-.7 217.9-217.8.7.7zm-1.5-1.5l-.7-.7 217.9-217.9.7.8-217.9 217.8zm-1.5-1.5l-.7-.7 217.9-217.9.7.8zm-1.5-1.5l-.7-.7 217.8-217.9.8.7zm-1.5-1.5l-.7-.7 217.8-217.9.8.7zm-1.5-1.5l-.7-.7 217.8-217.9.7.7-217.8 217.9zm-1.5-1.5l-.8-.7 217.9-217.9.7.7zm-1.5-1.5l-.8-.7 217.9-217.9.7.7-217.8 217.9zm-1.6-1.5l-.7-.7 217.9-217.9.7.7zm-1.5-1.5l-.7-.8 217.9-217.8.7.7zm-1.5-1.6l-.7-.7 217.9-217.8.7.7-217.9 217.8zm-1.5-1.5l-.7-.7 217.9-217.8.7.7-217.9 217.8zm-1.5-1.5l-.7-.7 217.9-217.8.7.7-217.9 217.8zm-1.5-1.5l-.7-.7L345.6 108l.7.7-217.9 217.9zm-1.5-1.5l-.7-.7L344 106.5l.8.7-217.9 217.9zm-1.5-1.5l-.7-.7L342.5 105l.7.7-217.8 217.9zm-1.5-1.5l-.7-.7L341 103.5l.7.7-217.8 217.9zm-1.6-1.5l-.6-.7L339.5 102l.7.7-217.9 217.9zm-1.5-1.5l-.7-.7L338 100.5l.7.7-217.9 217.9zm-1.5-1.5l-.7-.7L336.5 99l.7.7-217.9 217.9zm-1.5-1.6l-.7-.7L335 97.5l.7.7zm-1.5-1.5l-.7-.7L333.5 96l.7.7-217.9 217.8zm-1.5-1.5l-.7-.7L332 94.5l.7.6zm-1.5-1.5l-.7-.7L330.5 92.9l.7.7-217.9 217.9zm-1.5-1.5l-.7-.7L328.9 91.4l.7.7zm-1.5-1.5l-.7-.7L327.4 89.9l.7.7zm-1.5-1.5l-.7-.7L325.9 88.4l.7.7zm-1.6-1.5l-.7-.7L324.4 86.9l.7.7-217.9 217.9zm-1.5-1.5l-.7-.7L322.9 85.4l.7.7zm-1.5-1.5l-.7-.8L321.4 83.9l.7.7-217.9 217.9zm-1.5-1.6l-.7-.7L319.9 82.4l.7.7-217.9 217.8zm-1.5-1.5l-.7-.7L318.4 80.9l.7.7-217.9 217.8zm-1.5-1.5l-.7-.7L316.9 79.4l.7.7zm-1.5-1.5l-.7-.7L315.4 77.8l.7.8zm-1.5-1.5l-.7-.7L313.9 76.3l.7.7zm-1.5-1.5l-.7-.7L312.3 74.8l.7.7zm-1.5-1.5l-.7-.7L310.8 73.3l.7.7zm-1.5-1.5l-.7-.7L309.3 71.8l.7.7zm-1.5-1.5l-.8-.7L307.8 70.3l.7.7zm-1.6-1.5l-.7-.7L306.3 68.8l.7.7zm-1.5-1.5l-.7-.8L304.8 67.3l.7.7zm-1.5-1.6l-.7-.7L303.3 65.8l.7.7zm-1.5-1.5l-.7-.7L301.8 64.3l.7.7zm-1.5-1.5l-.7-.7L300.3 62.7l.7.8zm-1.5-1.5l-.7-.7L298.8 61.2l.6.7zm-1.5-1.5l-.7-.7L297.2 59.7l.7.7zm-1.5-1.5l-.7-.7L295.7 58.2l.7.7zm-1.5-1.5l-.8-.7L294.2 56.7l.7.7z" fill="#bce5f7"/></g><g clip-path="url(#b)"><path d="M47.5 371.7h308.1v1H47.5zm0-2.1h308.1v1H47.5zm0-2.1h308.1v1H47.5zm0-2.2h308.1v1H47.5zm0-2.1h308.1v1H47.5zm0-2.1h308.1v1H47.5zm0-2.2h308.1v1H47.5zm0-2.1h308.1v1H47.5zm0-2.1h308.1v1H47.5zm0-2.2h308.1v1H47.5zm0-2.1h308.1v1H47.5zm0-2.1h308.1v1H47.5zm0-2.2h308.1v1H47.5zm0-2.1h308.1v1H47.5zm0-2.1h308.1v1H47.5zm0-2.2h308.1v1H47.5zm0-2.1h308.1v1H47.5zm0-2.1h308.1v1H47.5zm0-2.2h308.1v1H47.5zm0-2.1h308.1v1H47.5zm0-2.2h308.1v1H47.5zm0-2.1h308.1v1H47.5zm0-2.1h308.1v1H47.5zm0-2.2h308.1v1H47.5zm0-2.1h308.1v1H47.5zm0-2.1h308.1v1H47.5zm0-2.2h308.1v1H47.5zm0-2.1h308.1v1H47.5zm0-2.1h308.1v1H47.5zm0-2.2h308.1v1H47.5zm0-2.1h308.1v1H47.5zm0-2.1h308.1v1H47.5zm0-2.2h308.1v1H47.5zm0-2.1h308.1v1H47.5zm0-2.1h308.1v1H47.5zm0-2.2h308.1v1H47.5zm0-2.1h308.1v1H47.5zm0-2.2h308.1v1H47.5zm0-2.1h308.1v1H47.5zm0-2.1h308.1v1H47.5zm0-2.2h308.1v1H47.5zm0-2.1h308.1v1H47.5zm0-2.1h308.1v1H47.5zm0-2.2h308.1v1H47.5zm0-2.1h308.1v1H47.5zm0-2.1h308.1v1H47.5zm0-2.2h308.1v1H47.5zm0-2.1h308.1v1H47.5zm0-2.1h308.1v1H47.5zm0-2.2h308.1v1H47.5zm0-2.1h308.1v1H47.5zm0-2.1h308.1v1H47.5zm0-2.2h308.1v1H47.5zm0-2.1h308.1v1H47.5zm0-2.2h308.1v1H47.5zm0-2.1h308.1v1H47.5zm0-2.1h308.1v1H47.5zm0-2.2h308.1v1H47.5zm0-2.1h308.1v1H47.5zm0-2.1h308.1v1H47.5zm0-2.2h308.1v1H47.5zm0-2.1h308.1v1H47.5zm0-2.1h308.1v1H47.5zm0-2.2h308.1v1H47.5zm0-2.1h308.1v1H47.5zm0-2.1h308.1v1H47.5zm0-2.2h308.1v1H47.5zm0-2.1h308.1v1H47.5zm0-2.1h308.1v1H47.5zm0-2.2h308.1v1H47.5zm0-2.1h308.1v1H47.5zm0-2.2h308.1v1H47.5zm0-2.1h308.1v1H47.5zm0-2.1h308.1v1H47.5zm0-2.2h308.1v1H47.5zm0-2.1h308.1v1H47.5zm0-2.1h308.1v1H47.5zm0-2.2h308.1v1H47.5zm0-2.1h308.1v1H47.5zm0-2.1h308.1v1H47.5zm0-2.2h308.1v1H47.5zm0-2.1h308.1v1H47.5zm0-2.1h308.1v1H47.5zm0-2.2h308.1v1H47.5zm0-2.1h308.1v1H47.5zm0-2.1h308.1v1H47.5zm0-2.2h308.1v1H47.5zm0-2.1h308.1v1H47.5zm0-2.2h308.1v1H47.5zm0-2.1h308.1v1H47.5zm0-2.1h308.1v1H47.5zm0-2.2h308.1v1H47.5zm0-2.1h308.1v1H47.5zm0-2.1h308.1v1H47.5zm0-2.2h308.1v1H47.5zm0-2.1h308.1v1H47.5zm0-2.1h308.1v1H47.5zm0-2.2h308.1v1H47.5zm0-2.1h308.1v1H47.5zm0-2.1h308.1v1H47.5zm0-2.2h308.1v1H47.5zm0-2.1h308.1v1H47.5zm0-2.1h308.1v1H47.5zm0-2.2h308.1v1H47.5zm0-2.1h308.1v1H47.5zm0-2.2h308.1v1H47.5zm0-2.1h308.1v1H47.5zm0-2.1h308.1v1H47.5zm0-2.2h308.1v1H47.5zm0-2.1h308.1v1H47.5zm0-2.1h308.1v1H47.5zm0-2.2h308.1v1H47.5zm0-2.1h308.1v1H47.5zm0-2.1h308.1v1H47.5z" fill="#bce5f7"/></g><g clip-path="url(#c)"><path d="M195.1 92h1v308.1h-1zm-2.1 0h1v308.1h-1zm-2.2 0h1v308.1h-1zm-2.1 0h1v308.1h-1zm-2.1 0h1v308.1h-1zm-2.2 0h1v308.1h-1zm-2.1 0h1v308.1h-1zm-2.2 0h1v308.1h-1zm-2.1 0h1v308.1h-1zm-2.1 0h1v308.1h-1zm-2.2 0h1v308.1h-1zm-2.1 0h1v308.1h-1zm-2.1 0h1v308.1h-1zm-2.2 0h1v308.1h-1zm-2.1 0h1v308.1h-1zm-2.1 0h1v308.1h-1zm-2.2 0h1v308.1h-1zm-2.1 0h1v308.1h-1zm-2.2 0h1v308.1h-1zm-2.1 0h1v308.1h-1zm-2.1 0h1v308.1h-1zm-2.2 0h1v308.1h-1zm-2.1 0h1v308.1h-1zm-2.1 0h1v308.1h-1zm-2.2 0h1v308.1h-1zm-2.1 0h1v308.1h-1zm-2.1 0h1v308.1h-1zm-2.2 0h1v308.1h-1zm-2.1 0h1v308.1h-1zm-2.1 0h1v308.1h-1zm-2.2 0h1v308.1h-1zm-2.1 0h1v308.1h-1zm-2.1 0h1v308.1h-1zm-2.2 0h1v308.1h-1zm-2.1 0h1v308.1h-1zm-2.1 0h1v308.1h-1zm-2.2 0h1v308.1h-1zm-2.1 0h1v308.1h-1zm-2.1 0h1v308.1h-1zm-2.2 0h1v308.1h-1zm-2.1 0h1v308.1h-1zm-2.2 0h1v308.1h-1zm-2.1 0h1v308.1h-1zm-2.1 0h1v308.1h-1zm-2.2 0h1v308.1h-1zM99 92h1v308.1h-1zm-2.1 0h1v308.1h-1zm-2.2 0h1v308.1h-1zm-2.1 0h1v308.1h-1zm-2.1 0h1v308.1h-1zm-2.2 0h1v308.1h-1zm-2.1 0h1v308.1h-1zm-2.1 0h1v308.1h-1zm-2.2 0h1v308.1h-1zm-2.1 0h1v308.1h-1zm-2.1 0h1v308.1h-1zm-2.2 0h1v308.1h-1zm-2.1 0h1v308.1h-1zm-2.2 0h1v308.1h-1zm-2.1 0h1v308.1h-1zM67 92h1v308.1h-1zm-2.2 0h1v308.1h-1zm-2.1 0h1v308.1h-1zm-2.1 0h1v308.1h-1zm-2.2 0h1v308.1h-1zm-2.1 0h1v308.1h-1zm-2.1 0h1v308.1h-1zM52 92h1v308.1h-1zm-2.1 0h1v308.1h-1zm-2.1 0h1v308.1h-1zm-2.2 0h1v308.1h-1zm-2.1 0h1v308.1h-1zm-2.2 0h1v308.1h-1zm-2.1 0h1v308.1h-1zm-2.1 0h1v308.1h-1zM35 92h1v308.1h-1zm-2.2 0h1v308.1h-1zm-2.1 0h1v308.1h-1zm-2.2 0h1v308.1h-1zm-2.1 0h1v308.1h-1zm-2.1 0h1v308.1h-1zm-2.2 0h1v308.1h-1zM20 92h1v308.1h-1zm-2.1 0h1v308.1h-1zm-2.2 0h1v308.1h-1zm-2.1 0h1v308.1h-1zm-2.1 0h1v308.1h-1zm-2.2 0h1v308.1h-1zm-2.1 0h1v308.1h-1zM5 92h1v308.1H5zm-2.1 0h1v308.1h-1zM.8 92h1v308.1h-1zm-2.1 0h1v308.1h-1zm-2.2 0h1v308.1h-1zm-2.1 0h1v308.1h-1zm-2.2 0h1v308.1h-1zm-2.1 0h1v308.1h-1zm-2.1 0h1v308.1h-1zm-2.2 0h1v308.1h-1zm-2.1 0h1v308.1h-1zm-2.1 0h1v308.1h-1zm-2.2 0h1v308.1h-1zm-2.1 0h1v308.1h-1zm-2.1 0h1v308.1h-1zm-2.2 0h1v308.1h-1zm-2.1 0h1v308.1h-1zm-2.1 0h1v308.1h-1zm-2.2 0h1v308.1h-1zm-2.1 0h1v308.1h-1zm-2.2 0h1v308.1h-1zm-2.1 0h1v308.1h-1zm-2.1 0h1v308.1h-1zm-2.2 0h1v308.1h-1zm-2.1 0h1v308.1h-1z" fill="#bce5f7"/></g><g clip-path="url(#d)"><path d="M-132.2 123.1l-.7-.7L85-95.5l.7.7zm1.5 1.5l-.7-.7L86.5-94l.7.7zm1.5 1.5l-.7-.7L88-92.5l.7.7zm1.5 1.5l-.7-.7L89.5-91l.7.7zm1.6 1.5l-.8-.7L91-89.5l.7.8zm1.5 1.5l-.7-.7L92.5-87.9l.7.7zm1.5 1.5l-.7-.7L94-86.4l.7.7zm1.5 1.5l-.7-.7L95.5-84.9l.7.7zm1.5 1.5l-.7-.6L97-83.4l.7.7zm1.5 1.6l-.7-.7L98.6-81.9l.7.7-217.9 217.9zm1.5 1.5l-.7-.7L100.1-80.4l.7.7-217.9 217.9zm1.5 1.5l-.7-.7L101.6-78.9l.7.7-217.9 217.9zm1.5 1.5l-.7-.7L103.1-77.4l.7.7-217.9 217.9zm1.5 1.5l-.7-.7L104.6-75.9l.7.7-217.9 217.9zm1.5 1.5l-.7-.7L106.1-74.4l.7.7-217.9 217.9zm1.6 1.5l-.7-.7L107.6-72.8l.7.7zm1.5 1.5l-.7-.7L109.1-71.3l.7.7zm1.5 1.5l-.7-.7L110.6-69.8l.7.7zm1.5 1.6l-.7-.7L112.2-68.3l.7.7zm1.5 1.5l-.7-.7L113.7-66.8l.7.7-217.9 217.9zm1.5 1.5l-.7-.7L115.2-65.3l.7.7zm1.5 1.5l-.7-.7L116.7-63.8l.7.7-217.9 217.9zm1.5 1.5l-.7-.7L118.2-62.3l.7.7zm1.5 1.5l-.7-.7L119.7-60.8l.7.7-217.9 217.9zm1.5 1.5l-.7-.7L121.2-59.3l.7.7zm1.5 1.5l-.6-.7L122.7-57.7l.7.7zm1.6 1.5l-.7-.7L124.2-56.2l.7.7zm1.5 1.5l-.7-.7L125.7-54.7l.7.7zm1.5 1.6l-.7-.8L127.2-53.2l.8.7zm1.5 1.5l-.7-.7L128.8-51.7l.7.7zm1.5 1.5l-.7-.7L130.3-50.2l.7.7zm1.5 1.5l-.7-.7L131.8-48.7l.7.7zm1.5 1.5l-.7-.7L133.3-47.2l.7.7zm1.5 1.5l-.7-.7L134.8-45.7l.7.7zm1.5 1.5l-.7-.7L136.3-44.2l.7.7zm1.6 1.5l-.8-.7L137.8-42.6l.7.7-217.8 217.8zm1.5 1.5l-.7-.7L139.3-41.1l.7.7-217.8 217.8zm1.5 1.5l-.7-.7L140.8-39.6l.7.7-217.8 217.8zm1.5 1.6l-.7-.8L142.3-38.1l.8.7-217.9 217.9zm1.5 1.5l-.7-.7L143.9-36.6l.7.7zm1.5 1.5l-.7-.7L145.4-35.1l.7.7zm1.5 1.5l-.7-.7L146.9-33.6l.7.7zm1.5 1.5l-.7-.7L148.4-32.1l.7.7zm1.5 1.5l-.7-.7L149.9-30.6l.7.7zm1.5 1.5l-.7-.7L151.4-29.1l.7.7zm1.6 1.5l-.8-.7L152.9-27.6l.7.8zm1.5 1.5l-.7-.7L154.4-26l.7.7-217.8 217.8zm1.5 1.5l-.7-.7L155.9-24.5l.7.7zm1.5 1.6l-.7-.8L157.4-23l.7.7-217.8 217.9zm1.5 1.5l-.7-.7L159-21.5l.7.7-217.9 217.9zm1.5 1.5l-.7-.7L160.5-20l.7.7-217.9 217.9zm1.5 1.5l-.7-.7L162-18.5l.7.7-217.9 217.9zm1.5 1.5l-.7-.7L163.5-17l.7.7-217.9 217.9zm1.5 1.5l-.7-.7L165-15.5l.7.7-217.9 217.9zm1.5 1.5l-.7-.7L166.5-14l.7.7-217.9 217.9zm1.6 1.5l-.8-.7L168-12.5l.7.8zm1.5 1.5l-.7-.7L169.5-10.9l.7.7zm1.5 1.5l-.7-.7L171-9.4l.7.7zm1.5 1.5l-.7-.7L172.5-7.9l.7.7zm1.5 1.6l-.7-.7L174.1-6.4l.7.7zm1.5 1.5l-.7-.7L175.6-4.9l.7.7zm1.5 1.5l-.7-.7L177.1-3.4l.7.7zm1.5 1.5l-.7-.7L178.6-1.9l.7.7zm1.5 1.5l-.7-.7L180.1-.4l.7.7zm1.5 1.5l-.7-.7L181.6 1.1l.7.7zm1.5 1.5l-.7-.7L183.1 2.6l.7.8zm1.6 1.5l-.8-.7L184.6 4.2l.7.7zm1.5 1.5l-.7-.7L186.1 5.7l.7.7zm1.5 1.5l-.7-.7L187.6 7.2l.7.7zm1.5 1.6l-.7-.7L189.1 8.7l.8.7zm1.5 1.5l-.7-.7L190.7 10.2l.7.7-217.9 217.9zm1.5 1.5l-.7-.7L192.2 11.7l.7.7zm1.5 1.5l-.7-.7L193.7 13.2l.7.7-217.9 217.9zm1.5 1.5l-.7-.7L195.2 14.7l.7.7zm1.5 1.5l-.7-.7L196.7 16.2l.7.7-217.9 217.9zm1.5 1.5l-.7-.7L198.2 17.7l.7.8zm1.6 1.5l-.7-.7L199.7 19.3l.7.7zm1.5 1.5l-.7-.7L201.2 20.8l.7.7zm1.5 1.5l-.7-.7L202.7 22.3l.7.7zm1.5 1.6l-.7-.8L204.2 23.8l.8.7zm1.5 1.5l-.7-.7L205.8 25.3l.7.7zm1.5 1.5l-.7-.7L207.3 26.8l.7.7zm1.5 1.5l-.7-.7L208.8 28.3l.7.7zm1.5 1.5l-.7-.7L210.3 29.8l.7.7zm1.5 1.5l-.7-.7L211.8 31.3l.7.7zm1.5 1.5l-.7-.7L213.3 32.8l.7.7zm1.6 1.5l-.7-.7L214.8 34.4l.7.7zm1.5 1.5l-.7-.7L216.3 35.9l.7.7zm1.5 1.5l-.7-.7L217.8 37.4l.7.7zm1.5 1.6l-.7-.8L219.3 38.9l.8.7zm1.5 1.5l-.7-.7L220.9 40.4l.7.7zm1.5 1.5l-.7-.7L222.4 41.9l.7.7zm1.5 1.5l-.7-.7L223.9 43.4l.7.7zm1.5 1.5l-.7-.7L225.4 44.9l.7.7zm1.5 1.5l-.7-.7L226.9 46.4l.7.7zm1.5 1.5l-.7-.7L228.4 47.9l.7.7zm1.5 1.5l-.7-.7L229.9 49.5l.7.6zm1.6 1.5l-.7-.7L231.4 51l.7.7zm1.5 1.5l-.7-.7L232.9 52.5l.7.7zm1.5 1.6l-.7-.8L234.5 54l.6.7zm1.5 1.5l-.7-.7L236 55.5l.7.7zm1.5 1.5l-.7-.7L237.5 57l.7.7zm1.5 1.5l-.7-.7L239 58.5l.7.7zm1.5 1.5l-.7-.7L240.5 60l.7.7zm1.5 1.5l-.7-.7L242 61.5l.7.7zm1.5 1.5l-.7-.7L243.5 63l.7.7zm1.6 1.5l-.7-.7L245 64.6l.7.7zm1.5 1.5l-.7-.7L246.5 66.1l.7.7zm1.5 1.5l-.7-.7L248 67.6l.7.7zm1.5 1.6l-.7-.8L249.5 69.1l.7.7zm1.5 1.5l-.7-.7L251.1 70.6l.7.7zm1.5 1.5l-.7-.7L252.6 72.1l.7.7zm1.5 1.5l-.7-.7L254.1 73.6l.7.7zm1.5 1.5l-.7-.7L255.6 75.1l.7.7z" fill="#bce5f7"/></g><g clip-path="url(#e)"><path d="M-23-22.3h308.1v1H-23zm0 2.1h308.1v1H-23zm0 2.1h308.1v1H-23zm0 2.2h308.1v1H-23zm0 2.1h308.1v1H-23zm0 2.1h308.1v1H-23zm0 2.2h308.1v1H-23zm0 2.1h308.1v1H-23zm0 2.1h308.1v1H-23zm0 2.2h308.1v1H-23zm0 2.1h308.1v1H-23zm0 2.1h308.1v1H-23zm0 2.2h308.1v1H-23zm0 2.1h308.1v1H-23zm0 2.1h308.1v1H-23zm0 2.2h308.1v1H-23zm0 2.1h308.1v1H-23zm0 2.2h308.1v1H-23zm0 2.1h308.1v1H-23zm0 2.1h308.1v1H-23zm0 2.2h308.1v1H-23zm0 2.1h308.1v1H-23zm0 2.1h308.1v1H-23zm0 2.2h308.1v1H-23zm0 2.1h308.1v1H-23zm0 2.1h308.1v1H-23zm0 2.2h308.1v1H-23zm0 2.1h308.1v1H-23zm0 2.1h308.1v1H-23zm0 2.2h308.1v1H-23zm0 2.1h308.1v1H-23zm0 2.1h308.1v1H-23zm0 2.2h308.1v1H-23zm0 2.1h308.1v1H-23zm0 2.2h308.1v1H-23zm0 2.1h308.1v1H-23zm0 2.1h308.1v1H-23zm0 2.1h308.1v1H-23zm0 2.2h308.1v1H-23zm0 2.1h308.1v1H-23zm0 2.2h308.1v1H-23zm0 2.1h308.1v1H-23zm0 2.1h308.1v1H-23zm0 2.2h308.1v1H-23zm0 2.1h308.1v1H-23zm0 2.1h308.1v1H-23zm0 2.2h308.1v1H-23zm0 2.1h308.1v1H-23zm0 2.1h308.1v1H-23zm0 2.2h308.1v1H-23zm0 2.1h308.1v1H-23zm0 2.2h308.1v1H-23zm0 2.1h308.1v1H-23zm0 2.1h308.1v1H-23zm0 2.2h308.1v1H-23zm0 2.1h308.1v1H-23zm0 2.1h308.1v1H-23zm0 2.2h308.1v1H-23zm0 2.1h308.1v1H-23zm0 2.1h308.1v1H-23zm0 2.2h308.1v1H-23zm0 2.1h308.1v1H-23zm0 2.1h308.1v1H-23zm0 2.2h308.1v1H-23zm0 2.1h308.1v1H-23zm0 2.1h308.1v1H-23zm0 2.2h308.1v1H-23zm0 2.1h308.1v1H-23zm0 2.1h308.1v1H-23zm0 2.2h308.1v1H-23zm0 2.1h308.1v1H-23zm0 2.2h308.1v1H-23zm0 2.1h308.1v1H-23zm0 2.1h308.1v1H-23zm0 2.2h308.1v1H-23zm0 2.1h308.1v1H-23zm0 2.1h308.1v1H-23zm0 2.2h308.1v1H-23zm0 2.1h308.1v1H-23zm0 2.1h308.1v1H-23zm0 2.2h308.1v1H-23zm0 2.1h308.1v1H-23zm0 2.1h308.1v1H-23zm0 2.2h308.1v1H-23zm0 2.1h308.1v1H-23zm0 2.1h308.1v1H-23zm0 2.2h308.1v1H-23zm0 2.1h308.1v1H-23zm0 2.2h308.1v1H-23zm0 2.1h308.1v1H-23zm0 2.1h308.1v1H-23zm0 2.2h308.1v1H-23zm0 2.1h308.1v1H-23zm0 2.1h308.1v1H-23zm0 2.2h308.1v1H-23zm0 2.1h308.1v1H-23zm0 2.1h308.1v1H-23zm0 2.2h308.1v1H-23zm0 2.1h308.1v1H-23zm0 2.1h308.1v1H-23zm0 2.2h308.1v1H-23zm0 2.1h308.1v1H-23zm0 2.1h308.1v1H-23zm0 2.2h308.1v1H-23zm0 2.1h308.1v1H-23zm0 2.2h308.1v1H-23zm0 2.1h308.1v1H-23zm0 2.1h308.1v1H-23zm0 2.2h308.1v1H-23zm0 2.1h308.1v1H-23zm0 2.1h308.1v1H-23zm0 2.2h308.1v1H-23zm0 2.1h308.1v1H-23zm0 2.1h308.1v1H-23z" fill="#bce5f7"/></g><g clip-path="url(#f)"><path d="M129.6-49.7h1v308.1h-1zm2.1 0h1v308.1h-1zm2.2 0h1v308.1h-1zm2.1 0h1v308.1h-1zm2.1 0h1v308.1h-1zm2.2 0h1v308.1h-1zm2.1 0h1v308.1h-1zm2.1 0h1v308.1h-1zm2.2 0h1v308.1h-1zm2.1 0h1v308.1h-1zm2.1 0h1v308.1h-1zm2.2 0h1v308.1h-1zm2.1 0h1v308.1h-1zm2.1 0h1v308.1h-1zm2.2 0h1v308.1h-1zm2.1 0h1v308.1h-1zm2.1 0h1v308.1h-1zm2.2 0h1v308.1h-1zm2.1 0h1v308.1h-1zm2.1 0h1v308.1h-1zm2.2 0h1v308.1h-1zm2.1 0h1v308.1h-1zm2.2 0h1v308.1h-1zm2.1 0h1v308.1h-1zm2.1 0h1v308.1h-1zm2.2 0h1v308.1h-1zm2.1 0h1v308.1h-1zm2.1 0h1v308.1h-1zm2.2 0h1v308.1h-1zm2.1 0h1v308.1h-1zm2.1 0h1v308.1h-1zm2.2 0h1v308.1h-1zm2.1 0h1v308.1h-1zm2.1 0h1v308.1h-1zm2.2 0h1v308.1h-1zm2.1 0h1v308.1h-1zm2.2 0h1v308.1h-1zm2.1 0h1v308.1h-1zm2.1 0h1v308.1h-1zm2.2 0h1v308.1h-1zm2.1 0h1v308.1h-1zm2.1 0h1v308.1h-1zm2.2 0h1v308.1h-1zm2.1 0h1v308.1h-1zm2.1 0h1v308.1h-1zm2.2 0h1v308.1h-1zm2.1 0h1v308.1h-1zm2.1 0h1v308.1h-1zm2.2 0h1v308.1h-1zm2.1 0h1v308.1h-1zm2.1 0h1v308.1h-1zm2.2 0h1v308.1h-1zm2.1 0h1v308.1h-1zm2.1 0h1v308.1h-1zm2.2 0h1v308.1h-1zm2.1 0h1v308.1h-1zm2.1 0h1v308.1h-1zm2.2 0h1v308.1h-1zm2.1 0h1v308.1h-1zm2.2 0h1v308.1h-1zm2.1 0h1v308.1h-1zm2.1 0h1v308.1h-1zm2.2 0h1v308.1h-1zm2.1 0h1v308.1h-1zm2.1 0h1v308.1h-1zm2.2 0h1v308.1h-1zm2.1 0h1v308.1h-1zm2.1 0h1v308.1h-1zm2.2 0h1v308.1h-1zm2.1 0h1v308.1h-1zm2.2 0h1v308.1h-1zm2.1 0h1v308.1h-1zm2.1 0h1v308.1h-1zm2.1 0h1v308.1h-1zm2.2 0h1v308.1h-1zm2.1 0h1v308.1h-1zm2.2 0h1v308.1h-1zm2.1 0h1v308.1h-1zm2.1 0h1v308.1h-1zm2.2 0h1v308.1h-1zm2.1 0h1v308.1h-1zm2.1 0h1v308.1h-1zm2.2 0h1v308.1h-1zm2.1 0h1v308.1h-1zm2.1 0h1v308.1h-1zm2.2 0h1v308.1h-1zm2.1 0h1v308.1h-1zm2.1 0h1v308.1h-1zm2.2 0h1v308.1h-1zm2.1 0h1v308.1h-1zm2.2 0h1v308.1h-1zm2.1 0h1v308.1h-1zm2.1 0h1v308.1h-1zm2.2 0h1v308.1h-1zm2.1 0h1v308.1h-1zm2.1 0h1v308.1h-1zm2.2 0h1v308.1h-1zm2.1 0h1v308.1h-1zm2.1 0h1v308.1h-1zm2.2 0h1v308.1h-1zm2.1 0h1v308.1h-1zm2.1 0h1v308.1h-1zm2.2 0h1v308.1h-1zm2.1 0h1v308.1h-1zm2.1 0h1v308.1h-1zm2.2 0h1v308.1h-1zm2.1 0h1v308.1h-1zm2.2 0h1v308.1h-1zm2.1 0h1v308.1h-1zm2.1 0h1v308.1h-1zm2.2 0h1v308.1h-1zm2.1 0h1v308.1h-1zm2.1 0h1v308.1h-1zm2.2 0h1v308.1h-1z" fill="#bce5f7"/></g></pattern><clipPath id="k"><path d="M358.44 240.24c-4.38-63-23.09-151.76-89.68-197.79-65 44.84-84.37 130.27-89.41 192.88-3.45 43.51 0 75.88 0 75.88l7.16-3.32a195.27 195.27 0 0 1 164.23-.13l7.3 3.32a38.7 38.7 0 0 0 .26-4 487.49 487.49 0 0 0 .14-66.86z" fill="none"/></clipPath><clipPath id="l"><path d="M268.63 42.32C208.67 42.72 8.09 85 0 310.81c0 0 83.31-48.55 179.35.27 0 .13-20.69-192.75 89.28-268.76" fill="none"/></clipPath></defs><g data-name="Layer 2"><g data-name="Layer 1"><path d="M271.81 3.71C271.68 2.65 270.09 0 268.1 0s-3.58 2.65-3.72 3.71l-5 58.11h17.38z" fill="#cdedfb"/><path d="M271.41 58.24a5.84 5.84 0 0 0-6.23 0 8.53 8.53 0 0 0-3.45 7.16v387.75a20.64 20.64 0 0 1-41.26 0V425a6.63 6.63 0 0 0-13.26 0v28.12a33.84 33.84 0 0 0 67.65 0V65.53a9.35 9.35 0 0 0-3.45-7.29z" fill="#81bff2"/><path d="M268.63 42.32C208.67 42.72 8.09 85 0 310.81c0 0 83.31-48.55 179.35.27 0 .13-20.69-192.75 89.28-268.76" fill="url(#g)"/><path d="M268.63 42.32c60 .4 260.54 42.71 268.63 268.49 0 0-83.31-48.55-179.35.27.13.13 20.82-192.75-89.28-268.76" fill="url(#h)"/><path d="M358.44 240.24c-4.38-63-23.09-151.76-89.68-197.79-65 44.84-84.37 130.27-89.41 192.88-3.45 43.51 0 75.88 0 75.88l7.16-3.32a195.27 195.27 0 0 1 164.23-.13l7.3 3.32a38.7 38.7 0 0 0 .26-4 487.49 487.49 0 0 0 .14-66.86z" fill="#c8cfa4"/><path d="M358.44 240.24c-4.38-63-23.09-151.76-89.68-197.79-65 44.84-84.37 130.27-89.41 192.88-3.45 43.51 0 75.88 0 75.88l7.16-3.32a195.27 195.27 0 0 1 164.23-.13l7.3 3.32a38.7 38.7 0 0 0 .26-4 487.49 487.49 0 0 0 .14-66.86z" fill="#bce5f7"/><path d="M268.63 42.32C208.67 42.72 8.09 85 0 310.81c0 0 83.31-48.55 179.35.27 0 .13-20.69-192.75 89.28-268.76" fill="url(#h)"/><g clip-path="url(#i)"><path d="M445.86 289.59S459.92 80.12 268.63 42.45" fill="none" stroke-miterlimit="10" stroke-width="8.217" stroke="url(#j)"/></g><g clip-path="url(#k)"><path d="M268.63 293.3V35.15" fill="none" stroke="#81bff2" stroke-miterlimit="10" stroke-width="8.217"/></g><g clip-path="url(#l)"><path d="M91.27 289.59S77.21 80.12 268.63 42.45l9.95-1.33" fill="none" stroke-miterlimit="10" stroke-width="8.217" stroke="url(#j)"/></g></g></g></svg>