<svg xmlns="http://www.w3.org/2000/svg" xmlns:xlink="http://www.w3.org/1999/xlink" viewBox="0 0 84.95 84.95"><defs><clipPath id="clip-path"><rect width="36.88" height="36.88" style="fill:none"/></clipPath><pattern id="b" data-name="b" width="36.88" height="36.88" patternTransform="matrix(-0.74, -0.74, -0.74, 0.74, 316.56, 1097.6)" patternUnits="userSpaceOnUse" viewBox="0 0 36.88 36.88"><rect width="36.88" height="36.88" style="fill:none"/><rect width="36.88" height="36.88" style="fill:none"/><rect width="36.88" height="36.88" style="fill:#ffe8d9"/><g style="clip-path:url(#clip-path)"><rect x="-0.38" width="0.75" height="36.88" style="fill:#fce0c0"/><rect x="1.79" width="0.75" height="36.88" style="fill:#fce0c0"/><rect x="3.96" width="0.75" height="36.88" style="fill:#fce0c0"/><rect x="6.13" width="0.75" height="36.88" style="fill:#fce0c0"/><rect x="8.3" width="0.75" height="36.88" style="fill:#fce0c0"/><rect x="10.47" width="0.75" height="36.88" style="fill:#fce0c0"/><rect x="12.64" width="0.75" height="36.88" style="fill:#fce0c0"/><rect x="14.81" width="0.75" height="36.88" style="fill:#fce0c0"/><rect x="16.98" width="0.75" height="36.88" style="fill:#fce0c0"/><rect x="19.15" width="0.75" height="36.88" style="fill:#fce0c0"/><rect x="21.32" width="0.75" height="36.88" style="fill:#fce0c0"/><rect x="23.49" width="0.75" height="36.88" style="fill:#fce0c0"/><rect x="25.66" width="0.75" height="36.88" style="fill:#fce0c0"/><rect x="27.82" width="0.75" height="36.88" style="fill:#fce0c0"/><rect x="29.99" width="0.75" height="36.88" style="fill:#fce0c0"/><rect x="32.16" width="0.75" height="36.88" style="fill:#fce0c0"/><rect x="34.33" width="0.75" height="36.88" style="fill:#fce0c0"/><rect x="36.5" width="0.75" height="36.88" style="fill:#fce0c0"/></g></pattern></defs><title>life-gpals</title><g id="Layer_2" data-name="Layer 2"><g id="Layer_1-2" data-name="Layer 1"><path d="M42.47,0H42.4A42.48,42.48,0,1,0,85,42.47h0c0-11-23.73-3.81-30.58-11.35C46.6,22.56,54.94,0,42.47,0Z" style="fill:#0066f5"/><path d="M75.73,42.47H74.42a31.95,31.95,0,1,1-32-31.94V7.91A34.57,34.57,0,1,0,77,42.47Z" style="fill:#003783"/><path d="M21.22,42.47A21.28,21.28,0,0,1,42.4,21.22V18.6A23.88,23.88,0,1,0,66.35,42.47H63.73a21.26,21.26,0,0,1-42.51,0Z" style="fill:#003783"/><path d="M32.12,42.47A10.35,10.35,0,0,1,42.4,32.13V29.51a13,13,0,1,0,13,13H52.82a10.35,10.35,0,0,1-20.7,0Z" style="fill:#003783"/><path d="M42.47,0H42.4V42.47H85A42.48,42.48,0,0,0,42.47,0Z" style="fill:url(#b)"/><path d="M42.4,19.91A22.56,22.56,0,0,1,65,42.48h0" style="fill:none;stroke:#0066f5;stroke-miterlimit:10;stroke-width:2.5px"/><path d="M65,42.48A22.57,22.57,0,1,1,42.4,19.91" style="fill:none;stroke:#003783;stroke-miterlimit:10;stroke-width:2.5px"/><path d="M75.65,42.48A33.26,33.26,0,1,1,42.4,9.22h0" style="fill:none;stroke:#003783;stroke-miterlimit:10;stroke-width:2.5px"/><path d="M42.4,9.22A33.26,33.26,0,0,1,75.65,42.48" style="fill:none;stroke:#0066f5;stroke-miterlimit:10;stroke-width:2.5px"/><path d="M54.06,42.48A11.66,11.66,0,1,1,42.4,30.82" style="fill:none;stroke:#003783;stroke-miterlimit:10;stroke-width:2.5px"/><path d="M42.4,30.82A11.66,11.66,0,0,1,54.06,42.48h0" style="fill:none;stroke:#0066f5;stroke-miterlimit:10;stroke-width:2.5px"/><polyline points="26.4 42.91 42.4 42.91 42.4 58.91" style="fill:none;stroke:#fff;stroke-miterlimit:10;stroke-width:2.621000051498413px"/><line x1="42.4" y1="42.91" x2="3.22" y2="79.65" style="fill:none;stroke:#fff;stroke-miterlimit:10;stroke-width:2.621000051498413px"/></g></g></svg>