<svg id="Layer_1" data-name="Layer 1" xmlns="http://www.w3.org/2000/svg" xmlns:xlink="http://www.w3.org/1999/xlink" viewBox="0 0 184.06 184.06"><defs><clipPath id="clip-path"><circle cx="90.57" cy="101.54" r="81.08" style="fill:none"/></clipPath></defs><title>naira</title><g id="Layer_1-2" data-name="Layer 1-2"><g id="Layer_1-2-2" data-name="Layer 1-2-2"><g id="CW-Colours"><circle cx="90.57" cy="101.54" r="81.08" style="fill:#74d2fb"/><path d="M164.84,58.28a85.67,85.67,0,0,0-74.2-42.94v85.71Z" style="fill:#eff8ff"/><path d="M171.12,42.41A80.89,80.89,0,0,0,101,1.84V82.92Z" style="fill:#0066f5"/><g style="clip-path:url(#clip-path)"><path d="M90.57,324.45c-123.12,0-222.94-99.82-222.94-222.94S-32.55-121.42,90.57-121.42,313.4-21.73,313.51,101.32v.22C313.31,224.57,213.61,324.26,90.57,324.45Zm0-443.16c-121.61,0-220.2,98.59-220.2,220.2S-31,321.68,90.57,321.68s220.2-98.58,220.2-220.19h0C310.59-20,212.11-118.54,90.57-118.71Z" style="fill:#0066f5"/><rect x="89.21" y="101.54" width="2.76" height="221.63" style="fill:#0066f5"/><rect x="185.1" y="46.14" width="2.76" height="221.63" transform="translate(-42.68 239.97) rotate(-60)" style="fill:#0066f5"/><rect x="-6.82" y="-64.66" width="2.76" height="221.63" transform="translate(-42.69 18.37) rotate(-60)" style="fill:#0066f5"/><rect x="-116.22" y="155.63" width="221.63" height="2.76" transform="translate(-79.16 18.29) rotate(-29.97)" style="fill:#0066f5"/><path d="M45.93,107.28l-19.38-.68.31-9,19.51.65Zm-17-3,14.86.48v-4.41L29,99.84Z" style="fill:#0066f5"/></g><path d="M63.38,67.63a11,11,0,1,1,11-11v.05a11,11,0,0,1-11,11Zm0-18.95A8.1,8.1,0,1,0,71.26,57v-.22A8.1,8.1,0,0,0,63.38,48.68Z" style="fill:#0066f5"/><path d="M118.1,37.68a10.13,10.13,0,1,1,10.13-10.13A10.12,10.12,0,0,1,118.1,37.68Zm0-14.75a4.63,4.63,0,1,0,4.63,4.62A4.7,4.7,0,0,0,118.1,22.93Z" style="fill:#fff"/><path d="M112.21,155.5a12.12,12.12,0,1,1,12.12-12.12A12.12,12.12,0,0,1,112.21,155.5Zm0-18.95a6.71,6.71,0,1,0,6.74,6.71,6.71,6.71,0,0,0-6.74-6.71Z" style="fill:#fff"/></g></g></g></svg>