<svg xmlns="http://www.w3.org/2000/svg" xmlns:xlink="http://www.w3.org/1999/xlink" viewBox="0 0 48.38 42.15"><defs><clipPath id="clip-path"><polygon points="8.14 42.15 12.14 10.14 44.22 10.14 40.22 42.15 8.14 42.15" style="fill:none"/></clipPath><clipPath id="clip-path-2"><rect x="13.29" y="1.94" width="30.61" height="8.2" style="fill:none"/></clipPath><clipPath id="clip-path-3"><rect x="14.96" y="10.14" width="26.33" height="6.14" style="fill:none"/></clipPath></defs><title>saving-plans</title><g id="Layer_2" data-name="Layer 2"><g id="Layer_1-2" data-name="Layer 1"><g id="CW-Colours"><polygon points="8.14 42.15 12.14 10.14 44.22 10.14 40.22 42.15 8.14 42.15" style="fill:#002c69"/><g style="clip-path:url(#clip-path)"><rect x="5.43" y="35.81" width="40.64" height="0.82" style="fill:#0066f5"/><rect x="5.43" y="38.77" width="40.64" height="0.82" style="fill:#0066f5"/></g><polygon points="48.38 42.15 44.38 10.14 12.31 10.14 16.3 42.15 48.38 42.15" style="fill:#0066f5"/><g style="clip-path:url(#clip-path-2)"><path d="M22.55,10.24l-.75-.07a2.41,2.41,0,0,0-2.11-2.61,2.39,2.39,0,0,0-2,2.61l-.76.07A3.18,3.18,0,0,1,19.7,6.8,3.18,3.18,0,0,1,22.55,10.24Z" style="fill:#0066f5"/><path d="M26.1,10.24l-.75-.07a2.41,2.41,0,0,0-2.1-2.61,2.39,2.39,0,0,0-2,2.61l-.76.07A3.18,3.18,0,0,1,23.25,6.8,3.17,3.17,0,0,1,26.1,10.24Z" style="fill:#0066f5"/><path d="M29.61,10.24l-.76-.07a2.38,2.38,0,0,0-2.06-2.61,2.4,2.4,0,0,0-2,2.61l-.76.07A3.18,3.18,0,0,1,26.8,6.8,3.16,3.16,0,0,1,29.61,10.24Z" style="fill:#0066f5"/><path d="M33.22,10.24l-.76-.07a2.39,2.39,0,0,0-2.11-2.61,2.4,2.4,0,0,0-2,2.61l-.76.07A3.18,3.18,0,0,1,30.35,6.8,3.18,3.18,0,0,1,33.22,10.24Z" style="fill:#0066f5"/><path d="M31.13,10.24a3.15,3.15,0,0,1,2.7-3.44h.09a3.18,3.18,0,0,1,2.79,3.44L36,10.17a2.41,2.41,0,0,0-2.06-2.61,2.4,2.4,0,0,0-2,2.61Z" style="fill:#0066f5"/><path d="M34.68,10.24A3.18,3.18,0,0,1,37.45,6.8a3.17,3.17,0,0,1,2.87,3.44l-.75-.07a2.41,2.41,0,0,0-2.12-2.61,2.4,2.4,0,0,0-2,2.61Z" style="fill:#0066f5"/></g><g style="clip-path:url(#clip-path-3)"><path d="M19.74,13.48a3.16,3.16,0,0,1-2.83-3.4,3.16,3.16,0,0,1,2.83-3.4,3.16,3.16,0,0,1,2.83,3.4A3.16,3.16,0,0,1,19.74,13.48Zm0-6a2.41,2.41,0,0,0-2.07,2.64,2.41,2.41,0,0,0,2.07,2.64,2.41,2.41,0,0,0,2.07-2.64A2.41,2.41,0,0,0,19.74,7.44Z" style="fill:#002c69"/><path d="M23.29,13.48a3.16,3.16,0,0,1-2.83-3.4,3.16,3.16,0,0,1,2.83-3.4,3.16,3.16,0,0,1,2.83,3.4A3.16,3.16,0,0,1,23.29,13.48Zm0-6a2.41,2.41,0,0,0-2.07,2.64,2.41,2.41,0,0,0,2.07,2.64,2.41,2.41,0,0,0,2.07-2.64A2.41,2.41,0,0,0,23.29,7.44Z" style="fill:#002c69"/><path d="M26.84,13.48A3.16,3.16,0,0,1,24,10.08a3.16,3.16,0,0,1,2.83-3.4,3.16,3.16,0,0,1,2.83,3.4A3.16,3.16,0,0,1,26.84,13.48Zm0-6a2.41,2.41,0,0,0-2.07,2.64,2.41,2.41,0,0,0,2.07,2.64,2.41,2.41,0,0,0,2.07-2.64A2.41,2.41,0,0,0,26.84,7.44Z" style="fill:#002c69"/><path d="M30.39,13.48a3.16,3.16,0,0,1-2.83-3.4,3.16,3.16,0,0,1,2.83-3.4,3.16,3.16,0,0,1,2.83,3.4A3.16,3.16,0,0,1,30.39,13.48Zm0-6a2.41,2.41,0,0,0-2.07,2.64,2.41,2.41,0,0,0,2.07,2.64,2.41,2.41,0,0,0,2.07-2.64A2.41,2.41,0,0,0,30.39,7.44Z" style="fill:#002c69"/><path d="M33.94,13.48a3.16,3.16,0,0,1-2.83-3.4,3.16,3.16,0,0,1,2.83-3.4,3.16,3.16,0,0,1,2.83,3.4A3.16,3.16,0,0,1,33.94,13.48Zm0-6a2.41,2.41,0,0,0-2.07,2.64,2.41,2.41,0,0,0,2.07,2.64A2.4,2.4,0,0,0,36,10.08,2.4,2.4,0,0,0,33.94,7.44Z" style="fill:#002c69"/><path d="M37.49,13.48a3.16,3.16,0,0,1-2.83-3.4,3.16,3.16,0,0,1,2.83-3.4,3.15,3.15,0,0,1,2.83,3.4A3.15,3.15,0,0,1,37.49,13.48Zm0-6a2.41,2.41,0,0,0-2.07,2.64,2.41,2.41,0,0,0,2.07,2.64,2.4,2.4,0,0,0,2.07-2.64A2.4,2.4,0,0,0,37.49,7.44Z" style="fill:#002c69"/></g><path d="M31,36.31a7.91,7.91,0,0,1-1.18-.09A8,8,0,1,1,38.24,24.8l-1.4.67a6.48,6.48,0,1,0,.57,3.74l1.53.22A8.05,8.05,0,0,1,31,36.31Z" style="fill:#fff"/><polygon points="32.65 26.1 32.63 24.55 36.84 24.51 36.8 20.6 38.35 20.59 38.4 26.04 32.65 26.1" style="fill:#fff"/><rect x="13.01" y="15.44" width="32.08" height="0.78" style="fill:#002c69"/><circle cx="10.87" cy="10.87" r="10.87" style="fill:#eff8ff"/><polygon points="7.25 15.6 7.14 13.28 13.3 13 12.89 6.84 15.21 6.68 15.79 15.22 7.25 15.6" style="fill:#0066f5"/><rect x="8.78" y="3.8" width="2.33" height="12.37" transform="translate(-4.13 10.73) rotate(-48.15)" style="fill:#0066f5"/></g></g></g></svg>