<svg xmlns="http://www.w3.org/2000/svg" width="88" height="88" viewBox="0 0 88 88">
  <g fill="none" transform="translate(-1)">
    <path fill="#E6FAFF" d="M44.88,2.14652527e-15 C27.1312872,-0.00404482981 11.1279781,10.6844091 4.33303694,27.0809207 C-2.46190426,43.4774324 1.28981354,62.3526427 13.8386187,74.9043083 C26.3874239,87.4559739 45.2617785,91.2119936 61.6598385,84.4207897 C78.0578984,77.6295858 88.7499995,61.6287132 88.75,43.88 C88.7279563,19.6587854 69.101209,0.027564223 44.88,2.14652527e-15 Z"/>
    <path fill="#0067F5" d="M44.87,21.92 C32.7197355,21.92 22.87,31.7697355 22.87,43.92 C22.87,56.0702645 32.7197355,65.92 44.87,65.92 C57.0202645,65.92 66.87,56.0702645 66.87,43.92 C66.87,38.0852372 64.5521495,32.4894511 60.4263492,28.3636508 C56.3005489,24.2378505 50.7047628,21.92 44.87,21.92 Z"/>
    <polygon fill="#FFF" points="53.3 42.63 46.12 42.63 46.12 35.45 43.62 35.45 43.62 42.63 36.45 42.63 36.45 45.13 43.62 45.13 43.62 52.3 46.12 52.3 46.12 45.13 53.3 45.13"/>
  </g>
</svg>
