<svg xmlns="http://www.w3.org/2000/svg" width="88" height="88" viewBox="0 0 88 88">
  <g fill="none" fill-rule="evenodd" transform="translate(-1)">
    <path fill="#E6FAFF" fill-rule="nonzero" d="M44.88,2.14652527e-15 C27.1312872,-0.00404482981 11.1279781,10.6844091 4.33303694,27.0809207 C-2.46190426,43.4774324 1.28981354,62.3526427 13.8386187,74.9043083 C26.3874239,87.4559739 45.2617785,91.2119936 61.6598385,84.4207897 C78.0578984,77.6295858 88.7499995,61.6287132 88.75,43.88 C88.7279563,19.6587854 69.101209,0.027564223 44.88,2.14652527e-15 Z"/>
    <g transform="translate(26.5 22.5)">
      <polygon fill="#0067F5" fill-rule="nonzero" points="18.725 0 0 11.819 0 16.555 37.449 16.555 37.449 11.819"/>
      <rect width="28.289" height="14.697" x="4.587" y="16.555" fill="#0067F5" fill-rule="nonzero"/>
      <path stroke="#002C69" stroke-width=".975" d="M12.2745455 1.16129032L12.2745455 15.8709677M15.1021212 1.16129032L15.1021212 15.8709677M9.4469697 1.16129032L9.4469697 15.8709677M6.61939394 1.16129032L6.61939394 15.8709677M23.5848485 1.16129032L23.5848485 15.8709677M20.7572727 1.16129032L20.7572727 15.8709677M17.929697 1.16129032L17.929697 15.8709677M3.79181818 1.16129032L3.79181818 15.8709677M.964242424 1.16129032L.964242424 15.8709677" opacity=".2" transform="translate(6.45 15.394)"/>
      <rect width="37.449" height="3.265" y="31.252" fill="#0067F5" fill-rule="nonzero"/>
      <ellipse cx="33.123" cy="29.961" fill="#E6FAFF" fill-rule="nonzero" rx="9.134" ry="9.045"/>
      <polyline stroke="#0067F5" stroke-width="1.95" points="33.123 34.232 28.693 29.961 33.123 25.677"/>
      <path stroke="#0067F5" stroke-width="1.95" d="M39.0909091,29.9612903 L28.6927273,29.9612903"/>
      <ellipse cx="18.725" cy="9.845" stroke="#FFF" stroke-width="1.3" rx="3.622" ry="3.587"/>
    </g>
  </g>
</svg>
